<?xml version="1.0" encoding="utf-8"?>
<svg width="181" height="76" viewBox="0 0 181 76" fill="none" xmlns="http://www.w3.org/2000/svg"><rect width="180.258" height="75.1075" transform="translate(0 0.107513)" fill="white"/><path d="M26.0035 15.2104C26.0675 15.2101 26.1314 15.2098 26.1972 15.2094C26.4085 15.2085 26.6197 15.2081 26.831 15.2077C26.9783 15.2074 27.1256 15.207 27.273 15.2066C27.5821 15.206 27.8911 15.2056 28.2002 15.2054C28.5947 15.205 28.9893 15.2035 29.3838 15.2017C29.6883 15.2005 29.9928 15.2002 30.2974 15.2001C30.4427 15.1999 30.5881 15.1994 30.7335 15.1986C31.9603 15.1921 33.0675 15.2607 34.0084 16.1527C34.5638 16.7668 34.9086 17.5472 34.9078 18.3766C34.908 18.489 34.908 18.489 34.9081 18.6036C34.9079 18.6852 34.9076 18.7669 34.9074 18.851C34.9074 18.9382 34.9074 19.0255 34.9074 19.1127C34.9075 19.3492 34.9071 19.5856 34.9066 19.822C34.9062 20.0692 34.9062 20.3165 34.9061 20.5637C34.9059 21.0317 34.9054 21.4997 34.9048 21.9677C34.9041 22.5006 34.9037 23.0334 34.9034 23.5663C34.9027 24.6623 34.9016 25.7582 34.9002 26.8542C34.8565 26.8542 34.8129 26.8543 34.7679 26.8543C33.7015 26.8553 32.6351 26.858 31.5687 26.8626C31.053 26.8647 30.5373 26.8664 30.0215 26.8666C29.5716 26.8668 29.1217 26.8681 28.6718 26.8707C28.434 26.872 28.1961 26.8728 27.9583 26.8723C26.7335 26.87 25.707 26.8899 24.6679 27.6129C24.6023 27.6573 24.5368 27.7016 24.4693 27.7473C23.916 28.2351 23.5772 28.9831 23.4603 29.6994C23.4532 29.8829 23.4491 30.0649 23.4481 30.2484C23.4476 30.303 23.447 30.3577 23.4465 30.414C23.4449 30.5945 23.4439 30.775 23.443 30.9555C23.4425 31.0485 23.4425 31.0485 23.4419 31.1434C23.4402 31.4721 23.439 31.8007 23.4381 32.1293C23.4373 32.3998 23.4355 32.6702 23.4329 32.9406C23.4297 33.2685 23.4282 33.5964 23.4277 33.9244C23.4273 34.0485 23.4263 34.1727 23.4248 34.2968C23.4123 35.3684 23.5626 36.2128 24.223 37.0969C24.2554 37.1415 24.2879 37.186 24.3213 37.232C24.9113 37.9715 25.8476 38.4353 26.7652 38.6143C26.9411 38.6254 27.1105 38.6315 27.2862 38.6304C27.3602 38.6308 27.3602 38.6308 27.4358 38.6311C27.5422 38.6316 27.6486 38.6317 27.755 38.6316C27.9243 38.6316 28.0935 38.6324 28.2628 38.6335C28.7439 38.6364 29.225 38.638 29.7061 38.6384C30.0013 38.6387 30.2966 38.6402 30.5918 38.6425C30.7033 38.6431 30.8148 38.6433 30.9263 38.6429C32.0018 38.6398 32.9501 38.7659 33.7835 39.5111C34.7665 40.5136 34.8669 41.7099 34.8642 43.0317C34.8645 43.1587 34.8648 43.2857 34.8652 43.4126C34.8658 43.6776 34.8656 43.9426 34.865 44.2075C34.8643 44.5446 34.8655 44.8816 34.8674 45.2186C34.8686 45.4805 34.8685 45.7424 34.8682 46.0043C34.8682 46.1285 34.8685 46.2526 34.8693 46.3768C34.876 47.5896 34.719 48.6124 33.858 49.5334C33.582 49.7763 33.2701 49.9231 32.93 50.0583C32.8765 50.0803 32.823 50.1024 32.7679 50.1251C32.4774 50.2041 32.2077 50.2017 31.9079 50.1999C31.8443 50.2 31.7807 50.2001 31.7152 50.2002C31.5773 50.2005 31.4395 50.2004 31.3016 50.2001C31.0827 50.1998 30.8638 50.2004 30.6448 50.2012C30.0224 50.2036 29.4 50.2047 28.7775 50.204C28.3963 50.2036 28.0151 50.2048 27.6339 50.2069C27.4894 50.2074 27.3449 50.2073 27.2004 50.2067C26.1412 50.2019 25.1546 50.2265 24.3501 51.0067C24.3145 51.0411 24.2788 51.0756 24.2421 51.1111C23.5542 51.8437 23.4323 52.7731 23.4381 53.7329C23.439 53.8918 23.4386 54.0507 23.4378 54.2096C23.4359 54.6609 23.4362 55.1122 23.4374 55.5635C23.4381 55.841 23.4373 56.1185 23.4355 56.3961C23.4352 56.5006 23.4354 56.6051 23.4363 56.7096C23.4451 57.7578 23.2632 58.6902 22.515 59.478C21.8957 60.0593 21.1899 60.2568 20.3603 60.2561C20.259 60.2567 20.259 60.2567 20.1556 60.2573C19.933 60.2585 19.7103 60.2588 19.4877 60.2589C19.3321 60.2593 19.1766 60.2598 19.021 60.2602C18.695 60.261 18.369 60.2612 18.0431 60.2611C17.627 60.2611 17.211 60.2628 16.7949 60.265C16.4735 60.2664 16.1522 60.2667 15.8308 60.2666C15.6775 60.2668 15.5242 60.2673 15.3709 60.2683C14.2938 60.2746 13.4412 60.2348 12.5289 59.6054C12.4621 59.5598 12.3952 59.5141 12.3264 59.4671C11.7898 58.9333 11.3799 58.1305 11.3756 57.3633C11.3751 57.3071 11.3747 57.2509 11.3742 57.193C11.374 57.1319 11.3739 57.0707 11.3737 57.0077C11.3733 56.9429 11.3729 56.8781 11.3724 56.8113C11.3712 56.5967 11.3704 56.3821 11.3698 56.1675C11.3695 56.094 11.3693 56.0206 11.369 55.9449C11.3677 55.5558 11.3668 55.1667 11.3662 54.7776C11.3655 54.3769 11.3633 53.9763 11.3608 53.5756C11.3591 53.2666 11.3586 52.9575 11.3584 52.6484C11.358 52.5008 11.3573 52.3532 11.3561 52.2056C11.3473 51.0265 11.4416 50.1032 12.2747 49.1928C12.7177 48.7701 13.3669 48.408 13.9916 48.4057C14.0417 48.4053 14.0918 48.405 14.1435 48.4046C14.2252 48.4045 14.2252 48.4045 14.3085 48.4044C14.3952 48.4039 14.3952 48.4039 14.4836 48.4034C14.6091 48.4028 14.7346 48.4022 14.8601 48.4018C15.0592 48.401 15.2583 48.3998 15.4575 48.3984C16.0236 48.3945 16.5897 48.3911 17.1558 48.389C17.5023 48.3877 17.8487 48.3854 18.1951 48.3826C18.3267 48.3817 18.4583 48.3812 18.5899 48.381C19.5487 48.3891 19.5487 48.3891 20.4733 48.1615C20.5786 48.1211 20.5786 48.1211 20.686 48.08C21.5909 47.637 22.1923 46.9698 22.5275 46.0198C22.7299 45.3471 22.6815 44.6204 22.6756 43.9255C22.6738 43.7113 22.6748 43.4972 22.6767 43.283C22.6781 43.0749 22.6771 42.8667 22.6763 42.6586C22.677 42.5831 22.6776 42.5077 22.6783 42.43C22.6652 41.4774 22.2864 40.62 21.6331 39.9262C20.9315 39.2699 20.103 38.9472 19.1511 38.8957C19.1036 38.893 19.0561 38.8904 19.0072 38.8876C18.5626 38.8643 18.1185 38.8569 17.6734 38.8546C17.5354 38.8538 17.3973 38.8526 17.2593 38.8512C16.8678 38.8474 16.4763 38.8439 16.0847 38.8418C15.8428 38.8405 15.6009 38.8383 15.359 38.8355C15.2681 38.8346 15.1771 38.834 15.0862 38.8338C14.1056 38.8314 13.1356 38.6272 12.3981 37.9334C11.6925 37.1269 11.3779 36.2308 11.3727 35.1675C11.3722 35.108 11.3717 35.0485 11.3711 34.9873C11.3695 34.791 11.3685 34.5947 11.3676 34.3984C11.3672 34.3309 11.3669 34.2635 11.3665 34.194C11.3648 33.8366 11.3636 33.4792 11.3627 33.1218C11.3619 32.8277 11.3601 32.5336 11.3575 32.2395C11.3543 31.8828 11.3528 31.5261 11.3523 31.1694C11.3519 31.0344 11.3509 30.8993 11.3494 30.7643C11.3367 29.5822 11.4721 28.6049 12.2747 27.6762C12.818 27.1303 13.5673 26.7232 14.3484 26.7187C14.4192 26.7187 14.4192 26.7187 14.4915 26.7188C14.5417 26.7186 14.592 26.7184 14.6438 26.7181C14.753 26.7177 14.8621 26.7173 14.9713 26.7171C15.1452 26.7166 15.319 26.7156 15.4929 26.7145C15.9873 26.7112 16.4817 26.7081 16.9761 26.7072C17.2788 26.7065 17.5816 26.7046 17.8844 26.702C17.9987 26.7012 18.1131 26.7009 18.2274 26.7011C19.4745 26.7022 20.7661 26.5573 21.7126 25.6648C22.412 24.9085 22.7064 24.0227 22.7077 23.0063C22.708 22.9512 22.7084 22.8961 22.7087 22.8394C22.7094 22.7203 22.7099 22.6012 22.7104 22.4821C22.7111 22.293 22.7123 22.1039 22.7137 21.9149C22.7176 21.3775 22.7211 20.8401 22.7232 20.3027C22.7245 19.9735 22.7268 19.6442 22.7296 19.315C22.7305 19.1901 22.7311 19.0652 22.7313 18.9403C22.7331 17.9225 22.8054 16.9352 23.538 16.147C24.248 15.4904 25.0522 15.2115 26.0035 15.2104Z" fill="black"/><path d="M34.9159 26.8542C36.27 26.8453 37.6241 26.8387 38.9782 26.8346C39.607 26.8326 40.2358 26.8299 40.8646 26.8256C41.4129 26.8218 41.9612 26.8194 42.5095 26.8185C42.7996 26.818 43.0897 26.8169 43.3798 26.8141C43.6533 26.8115 43.9268 26.8107 44.2004 26.8113C44.3003 26.8112 44.4002 26.8105 44.5001 26.809C45.2274 26.7989 45.8057 26.926 46.3791 27.3961C47.1053 28.132 47.3914 28.8768 47.3921 29.8938C47.3927 29.9623 47.3932 30.0307 47.3937 30.1012C47.3953 30.3265 47.3958 30.5517 47.3962 30.777C47.3968 30.9345 47.3974 31.0919 47.398 31.2494C47.399 31.5793 47.3995 31.9092 47.3997 32.2391C47.4 32.6602 47.4024 33.0812 47.4053 33.5022C47.4072 33.8275 47.4077 34.1528 47.4078 34.4781C47.408 34.6333 47.4088 34.7884 47.4101 34.9436C47.4198 36.1711 47.3056 37.0288 46.4417 37.9697C45.514 38.8386 44.2542 38.8333 43.0656 38.8292C42.9326 38.8293 42.7997 38.8295 42.6668 38.8297C42.3894 38.83 42.112 38.8296 41.8346 38.8287C41.4821 38.8276 41.1296 38.8283 40.777 38.8294C40.5028 38.8301 40.2286 38.8299 39.9544 38.8294C39.8245 38.8292 39.6947 38.8294 39.5648 38.8298C38.2001 38.8335 36.9148 38.7527 35.8807 37.7526C35.3162 37.1418 34.9075 36.365 34.9083 35.5219C34.9082 35.4455 34.9081 35.3691 34.908 35.2903C34.9082 35.2059 34.9085 35.1214 34.9087 35.0369C34.9087 34.9478 34.9087 34.8587 34.9087 34.7696C34.9087 34.5278 34.909 34.286 34.9095 34.0442C34.9099 33.7915 34.9099 33.5388 34.91 33.286C34.9102 32.8075 34.9107 32.329 34.9113 31.8505C34.9121 31.3057 34.9124 30.7609 34.9127 30.2161C34.9134 29.0955 34.9145 27.9748 34.9159 26.8542Z" fill="#00E291"/><path d="M58.8435 22.0734H61.5485L65.5315 33.458L69.5145 22.0734H72.2195L66.6178 37.5794H64.4452L58.8435 22.0734ZM57.3845 22.0734H60.0788L60.5687 33.1705V37.5794H57.3845V22.0734ZM70.9842 22.0734H73.6892V37.5794H70.4943V33.1705L70.9842 22.0734ZM82.5178 34.9809V29.8477C82.5178 29.4786 82.4575 29.1626 82.3368 28.8999C82.2161 28.6301 82.0279 28.4207 81.7723 28.2716C81.5238 28.1225 81.2008 28.0479 80.8032 28.0479C80.4624 28.0479 80.1678 28.1083 79.9193 28.229C79.6708 28.3426 79.4791 28.5094 79.3442 28.7295C79.2093 28.9425 79.1418 29.1946 79.1418 29.4857H76.0747C76.0747 28.9958 76.1883 28.5307 76.4155 28.0905C76.6427 27.6503 76.9728 27.2634 77.4059 26.9297C77.839 26.5889 78.3538 26.3227 78.9501 26.131C79.5536 25.9393 80.2281 25.8434 80.9736 25.8434C81.8682 25.8434 82.6633 25.9925 83.3591 26.2907C84.0549 26.5889 84.6016 27.0362 84.9992 27.6326C85.4039 28.229 85.6062 28.9745 85.6062 29.869V34.7999C85.6062 35.4317 85.6453 35.95 85.7234 36.3547C85.8015 36.7523 85.9151 37.1002 86.0642 37.3984V37.5794H82.9651C82.816 37.267 82.7024 36.8766 82.6243 36.408C82.5533 35.9323 82.5178 35.4566 82.5178 34.9809ZM82.9225 30.5613L82.9438 32.2972H81.2292C80.8245 32.2972 80.4731 32.3433 80.1749 32.4356C79.8767 32.5279 79.6317 32.6593 79.44 32.8297C79.2483 32.993 79.1063 33.1847 79.014 33.4047C78.9288 33.6248 78.8862 33.8662 78.8862 34.1289C78.8862 34.3916 78.9466 34.6295 79.0673 34.8425C79.188 35.0484 79.3619 35.2116 79.5891 35.3323C79.8163 35.4459 80.0826 35.5027 80.3879 35.5027C80.8493 35.5027 81.2505 35.4104 81.5913 35.2258C81.9321 35.0413 82.1948 34.8141 82.3794 34.5443C82.571 34.2745 82.6704 34.0189 82.6775 33.7775L83.4869 35.0768C83.3733 35.3678 83.2171 35.6696 83.0183 35.982C82.8266 36.2944 82.5817 36.589 82.2835 36.8659C81.9853 37.1357 81.6268 37.3593 81.2079 37.5368C80.789 37.7072 80.292 37.7924 79.7169 37.7924C78.9856 37.7924 78.3218 37.6469 77.7254 37.3558C77.1361 37.0576 76.6676 36.6494 76.3197 36.1311C75.9789 35.6057 75.8085 35.0093 75.8085 34.3419C75.8085 33.7384 75.9221 33.2024 76.1493 32.7338C76.3765 32.2652 76.7102 31.8712 77.1503 31.5517C77.5976 31.2251 78.155 30.9802 78.8223 30.8169C79.4897 30.6465 80.2636 30.5613 81.144 30.5613H82.9225ZM91.0376 21.2108V37.5794H87.9705V21.2108H91.0376ZM98.3007 26.0564L93.2953 31.7647L90.6116 34.4804L89.4934 32.2652L91.6233 29.5602L94.6159 26.0564H98.3007ZM95.1164 37.5794L91.7085 32.2546L93.8278 30.4015L98.6521 37.5794H95.1164ZM104.712 37.7924C103.817 37.7924 103.015 37.6504 102.305 37.3664C101.595 37.0754 100.992 36.6742 100.495 36.163C100.005 35.6518 99.6283 35.059 99.3657 34.3845C99.103 33.7029 98.9716 32.9788 98.9716 32.212V31.786C98.9716 30.9127 99.0959 30.114 99.3444 29.3898C99.5928 28.6656 99.9478 28.0373 100.409 27.5048C100.878 26.9723 101.446 26.5641 102.113 26.2801C102.781 25.989 103.533 25.8434 104.371 25.8434C105.188 25.8434 105.912 25.9783 106.544 26.2481C107.175 26.5179 107.704 26.9013 108.13 27.3983C108.563 27.8953 108.89 28.4917 109.11 29.1875C109.33 29.8761 109.44 30.6429 109.44 31.4878V32.7658H100.282V30.721H106.426V30.4867C106.426 30.0607 106.348 29.6809 106.192 29.3472C106.043 29.0064 105.816 28.7366 105.511 28.5378C105.205 28.339 104.815 28.2396 104.339 28.2396C103.934 28.2396 103.586 28.3284 103.295 28.5059C103.004 28.6834 102.766 28.9319 102.582 29.2514C102.404 29.5708 102.269 29.9471 102.177 30.3802C102.092 30.8062 102.049 31.2748 102.049 31.786V32.212C102.049 32.6735 102.113 33.0995 102.241 33.4899C102.376 33.8804 102.564 34.2177 102.806 34.5017C103.054 34.7857 103.352 35.0058 103.7 35.162C104.055 35.3181 104.456 35.3962 104.904 35.3962C105.457 35.3962 105.972 35.2897 106.448 35.0768C106.931 34.8567 107.346 34.5265 107.694 34.0863L109.185 35.7051C108.943 36.053 108.613 36.3867 108.194 36.7062C107.782 37.0257 107.285 37.2883 106.703 37.4942C106.121 37.693 105.457 37.7924 104.712 37.7924Z" fill="black"/><path d="M115.947 35.3962C116.324 35.3962 116.657 35.3252 116.948 35.1833C117.239 35.0342 117.467 34.8283 117.63 34.5656C117.8 34.2958 117.889 33.9798 117.896 33.6177H120.782C120.775 34.4271 120.559 35.1478 120.133 35.7796C119.707 36.4044 119.135 36.8979 118.418 37.2599C117.701 37.6149 116.899 37.7924 116.011 37.7924C115.117 37.7924 114.336 37.6433 113.668 37.3451C113.008 37.047 112.458 36.6352 112.018 36.1098C111.577 35.5773 111.247 34.9596 111.027 34.2567C110.807 33.5467 110.697 32.7871 110.697 31.9777V31.6688C110.697 30.8524 110.807 30.0927 111.027 29.3898C111.247 28.6798 111.577 28.0621 112.018 27.5368C112.458 27.0043 113.008 26.5889 113.668 26.2907C114.329 25.9925 115.102 25.8434 115.99 25.8434C116.934 25.8434 117.761 26.0245 118.471 26.3866C119.188 26.7487 119.749 27.267 120.154 27.9414C120.566 28.6088 120.775 29.4005 120.782 30.3163H117.896C117.889 29.9329 117.807 29.585 117.651 29.2727C117.502 28.9603 117.282 28.7118 116.991 28.5272C116.707 28.3355 116.356 28.2396 115.937 28.2396C115.489 28.2396 115.124 28.3355 114.84 28.5272C114.556 28.7118 114.336 28.9674 114.179 29.294C114.023 29.6134 113.913 29.9791 113.849 30.3909C113.792 30.7956 113.764 31.2216 113.764 31.6688V31.9777C113.764 32.425 113.792 32.8545 113.849 33.2663C113.906 33.6781 114.013 34.0437 114.169 34.3632C114.332 34.6827 114.556 34.9348 114.84 35.1194C115.124 35.3039 115.493 35.3962 115.947 35.3962ZM125.553 21.2215V37.5794H122.486V21.2215H125.553ZM125.117 31.4133H124.275C124.282 30.611 124.389 29.8726 124.595 29.1981C124.801 28.5165 125.095 27.9272 125.479 27.4303C125.862 26.9262 126.32 26.5357 126.853 26.2588C127.392 25.9819 127.989 25.8434 128.642 25.8434C129.21 25.8434 129.724 25.9251 130.186 26.0884C130.655 26.2446 131.056 26.5002 131.389 26.8552C131.73 27.2031 131.993 27.661 132.177 28.229C132.362 28.797 132.454 29.4857 132.454 30.295V37.5794H129.366V30.2737C129.366 29.7625 129.291 29.3614 129.142 29.0703C129 28.7721 128.791 28.5627 128.514 28.442C128.244 28.3142 127.91 28.2503 127.513 28.2503C127.073 28.2503 126.696 28.3319 126.384 28.4952C126.079 28.6585 125.834 28.8857 125.649 29.1768C125.465 29.4608 125.33 29.7945 125.244 30.1779C125.159 30.5613 125.117 30.9731 125.117 31.4133ZM141.006 34.9809V29.8477C141.006 29.4786 140.946 29.1626 140.825 28.8999C140.704 28.6301 140.516 28.4207 140.261 28.2716C140.012 28.1225 139.689 28.0479 139.291 28.0479C138.951 28.0479 138.656 28.1083 138.408 28.229C138.159 28.3426 137.967 28.5094 137.832 28.7295C137.698 28.9425 137.63 29.1946 137.63 29.4857H134.563C134.563 28.9958 134.677 28.5307 134.904 28.0905C135.131 27.6503 135.461 27.2634 135.894 26.9297C136.327 26.5889 136.842 26.3227 137.438 26.131C138.042 25.9393 138.716 25.8434 139.462 25.8434C140.356 25.8434 141.152 25.9925 141.847 26.2907C142.543 26.5889 143.09 27.0362 143.487 27.6326C143.892 28.229 144.094 28.9745 144.094 29.869V34.7999C144.094 35.4317 144.134 35.95 144.212 36.3547C144.29 36.7523 144.403 37.1002 144.552 37.3984V37.5794H141.453C141.304 37.267 141.191 36.8766 141.113 36.408C141.042 35.9323 141.006 35.4566 141.006 34.9809ZM141.411 30.5613L141.432 32.2972H139.717C139.313 32.2972 138.961 32.3433 138.663 32.4356C138.365 32.5279 138.12 32.6593 137.928 32.8297C137.737 32.993 137.595 33.1847 137.502 33.4047C137.417 33.6248 137.374 33.8662 137.374 34.1289C137.374 34.3916 137.435 34.6295 137.556 34.8425C137.676 35.0484 137.85 35.2116 138.077 35.3323C138.305 35.4459 138.571 35.5027 138.876 35.5027C139.338 35.5027 139.739 35.4104 140.08 35.2258C140.42 35.0413 140.683 34.8141 140.868 34.5443C141.059 34.2745 141.159 34.0189 141.166 33.7775L141.975 35.0768C141.862 35.3678 141.705 35.6696 141.507 35.982C141.315 36.2944 141.07 36.589 140.772 36.8659C140.474 37.1357 140.115 37.3593 139.696 37.5368C139.277 37.7072 138.78 37.7924 138.205 37.7924C137.474 37.7924 136.81 37.6469 136.214 37.3558C135.624 37.0576 135.156 36.6494 134.808 36.1311C134.467 35.6057 134.297 35.0093 134.297 34.3419C134.297 33.7384 134.41 33.2024 134.638 32.7338C134.865 32.2652 135.198 31.8712 135.639 31.5517C136.086 31.2251 136.643 30.9802 137.311 30.8169C137.978 30.6465 138.752 30.5613 139.632 30.5613H141.411ZM149.696 26.0564V37.5794H146.618V26.0564H149.696ZM146.427 23.0532C146.427 22.6059 146.583 22.2367 146.895 21.9457C147.208 21.6546 147.627 21.509 148.152 21.509C148.67 21.509 149.086 21.6546 149.398 21.9457C149.718 22.2367 149.877 22.6059 149.877 23.0532C149.877 23.5005 149.718 23.8697 149.398 24.1608C149.086 24.4519 148.67 24.5974 148.152 24.5974C147.627 24.5974 147.208 24.4519 146.895 24.1608C146.583 23.8697 146.427 23.5005 146.427 23.0532ZM155.234 28.5165V37.5794H152.167V26.0564H155.042L155.234 28.5165ZM154.787 31.4133H153.956C153.956 30.5613 154.066 29.7945 154.286 29.1129C154.506 28.4242 154.815 27.8385 155.213 27.3557C155.61 26.8658 156.083 26.4931 156.629 26.2375C157.183 25.9748 157.801 25.8434 158.482 25.8434C159.022 25.8434 159.515 25.9215 159.963 26.0777C160.41 26.2339 160.793 26.4824 161.113 26.8232C161.439 27.164 161.688 27.6149 161.858 28.1757C162.036 28.7366 162.124 29.4218 162.124 30.2311V37.5794H159.036V30.2205C159.036 29.7093 158.965 29.3117 158.823 29.0277C158.681 28.7437 158.472 28.5449 158.195 28.4313C157.925 28.3106 157.591 28.2503 157.194 28.2503C156.782 28.2503 156.423 28.3319 156.118 28.4952C155.82 28.6585 155.571 28.8857 155.373 29.1768C155.181 29.4608 155.035 29.7945 154.936 30.1779C154.836 30.5613 154.787 30.9731 154.787 31.4133Z" fill="#00E291"/><path d="M64.6834 46.0996H66.2237V53.747H64.6834V46.0996ZM67.1643 44.7228H68.732V55.5191C68.732 55.9553 68.682 56.2961 68.582 56.5415C68.4911 56.7868 68.323 56.9731 68.0776 57.1004C67.8232 57.2367 67.5006 57.323 67.1098 57.3594C66.7281 57.4048 66.2601 57.4275 65.7057 57.4275C65.6785 57.2003 65.6149 56.9277 65.5149 56.6096C65.424 56.2915 65.324 56.0189 65.215 55.7917C65.5694 55.8008 65.9011 55.8054 66.2101 55.8054C66.5282 55.8054 66.7417 55.8054 66.8508 55.8054C66.9689 55.8054 67.0507 55.7872 67.0962 55.7508C67.1416 55.7054 67.1643 55.6236 67.1643 55.5055V44.7228ZM58.4401 50.6526H62.993V51.6204H58.4401V50.6526ZM59.2443 55.8054H63.0748V57.0049H59.2443V55.8054ZM57.4995 48.9759H59.0126V50.5708C59.0126 51.0252 58.9944 51.5296 58.9581 52.0839C58.9308 52.6292 58.8672 53.1926 58.7672 53.7742C58.6763 54.3559 58.5446 54.9238 58.3719 55.4782C58.2083 56.0235 57.9948 56.5278 57.7312 56.9913C57.6222 56.9277 57.4813 56.855 57.3086 56.7732C57.1451 56.6914 56.9678 56.6096 56.777 56.5278C56.5952 56.4551 56.4362 56.4006 56.2999 56.3643C56.5725 55.928 56.7861 55.46 56.9406 54.9602C57.1042 54.4513 57.2223 53.9378 57.295 53.4198C57.3768 52.8927 57.4313 52.3838 57.4586 51.8931C57.4858 51.4023 57.4995 50.957 57.4995 50.5572V48.9759ZM58.4128 48.9759H63.6065V53.3108H58.3992V52.1793H62.1206V50.1073H58.4128V48.9759ZM58.6173 53.7197H63.9336V57.373H62.5023V54.8375H59.9804V57.4275H58.6173V53.7197ZM60.403 44.6683L61.9025 45.2545C61.539 45.8179 61.1028 46.3541 60.5939 46.863C60.0849 47.3628 59.5351 47.8263 58.9444 48.2534C58.3628 48.6715 57.7767 49.0304 57.186 49.3303C57.1405 49.2031 57.0678 49.0441 56.9678 48.8532C56.8679 48.6533 56.7588 48.4534 56.6407 48.2534C56.5225 48.0535 56.418 47.8945 56.3272 47.7763C56.8633 47.5491 57.3859 47.281 57.8948 46.9721C58.4128 46.654 58.8854 46.2996 59.3125 45.9088C59.7487 45.518 60.1122 45.1045 60.403 44.6683ZM59.9259 46.2768L60.7302 45.0773C61.0028 45.2317 61.3118 45.409 61.6571 45.6089C62.0025 45.8088 62.3478 46.0087 62.6931 46.2087C63.0385 46.4086 63.3611 46.604 63.661 46.7948C63.9609 46.9766 64.2153 47.1493 64.4244 47.3128L63.5928 48.6896C63.3202 48.4715 62.9703 48.2216 62.5432 47.9399C62.1161 47.6582 61.6708 47.3719 61.2073 47.0811C60.7438 46.7812 60.3167 46.5131 59.9259 46.2768ZM59.2852 47.5718H62.0933V48.5397H59.2852V47.5718ZM79.0784 46.9175H85.6079V48.4715H78.3014L79.0784 46.9175ZM80.8641 49.9029H85.2671V51.4023H80.8641V49.9029ZM80.8505 52.9291H85.4443V54.4558H80.8505V52.9291ZM80.0326 47.4355H81.7229V57.482H80.0326V47.4355ZM79.3919 44.8183L80.9595 45.2272C80.7051 45.9633 80.4052 46.6949 80.0598 47.4219C79.7236 48.1489 79.3555 48.8305 78.9557 49.4666C78.5558 50.0937 78.1469 50.648 77.7288 51.1297C77.647 51.0206 77.5289 50.8934 77.3744 50.748C77.2199 50.6026 77.0609 50.4618 76.8973 50.3254C76.7428 50.18 76.602 50.0664 76.4747 49.9846C76.8837 49.5757 77.2654 49.094 77.6198 48.5397C77.9833 47.9853 78.315 47.3901 78.6149 46.7539C78.9239 46.1087 79.1829 45.4635 79.3919 44.8183ZM75.7795 44.7365L77.3608 45.2408C77.07 46.0133 76.7246 46.7903 76.3248 47.5718C75.9249 48.3534 75.4887 49.094 75.0161 49.7938C74.5436 50.4845 74.0574 51.0888 73.5576 51.6068C73.503 51.4705 73.4212 51.2933 73.3122 51.0752C73.2122 50.8571 73.1032 50.6344 72.985 50.4072C72.8669 50.18 72.7578 49.9983 72.6579 49.862C73.0759 49.4439 73.4758 48.9623 73.8574 48.417C74.2482 47.8717 74.6072 47.2856 74.9343 46.6585C75.2706 46.0315 75.5523 45.3908 75.7795 44.7365ZM74.4027 48.5124L76.0521 46.863V46.8766V57.4684H74.4027V48.5124ZM95.5318 46.863H101.516V48.158H95.5318V54.7421H94.0595V48.1307L95.2728 46.863H95.5318ZM94.7684 49.0577H100.998V50.2845H94.7684V49.0577ZM94.8502 51.2115H101.025V52.452H94.8502V51.2115ZM94.782 53.4062H101.734V54.7421H94.782V53.4062ZM97.3448 47.3674H98.7488V54.0741H97.3448V47.3674ZM95.0683 44.7774L96.3906 45.159C96.1543 45.8224 95.8726 46.4813 95.5454 47.1356C95.2273 47.7899 94.8729 48.4079 94.4821 48.9895C94.0913 49.5621 93.6869 50.0619 93.2689 50.489C93.2235 50.389 93.1508 50.2527 93.0508 50.0801C92.9599 49.9074 92.86 49.7347 92.7509 49.5621C92.6419 49.3894 92.5464 49.2531 92.4646 49.1531C93.0008 48.6169 93.4961 47.9626 93.9505 47.1902C94.414 46.4177 94.7866 45.6134 95.0683 44.7774ZM97.0858 45.2545L98.4217 44.8728C98.6216 45.209 98.8034 45.5816 98.9669 45.9906C99.1396 46.3904 99.2623 46.7358 99.335 47.0266L97.9173 47.4628C97.8628 47.172 97.7537 46.8221 97.5901 46.4132C97.4356 45.9951 97.2675 45.6089 97.0858 45.2545ZM89.6429 45.4317L90.8561 44.6819C91.0742 44.9 91.2969 45.1318 91.5241 45.3771C91.7513 45.6225 91.9648 45.8633 92.1647 46.0996C92.3738 46.3359 92.5419 46.5495 92.6691 46.7403L91.4286 47.64C91.3105 47.4401 91.1469 47.2129 90.9379 46.9584C90.738 46.704 90.5244 46.445 90.2972 46.1814C90.07 45.9088 89.8519 45.6589 89.6429 45.4317ZM89.3021 47.8717H92.192V49.1667H89.3021V47.8717ZM92.0693 53.7879C92.3147 54.3968 92.6509 54.8511 93.0781 55.151C93.5143 55.4418 94.0459 55.6327 94.673 55.7236C95.3091 55.8054 96.0407 55.8508 96.8677 55.8599C97.3493 55.8599 97.8991 55.8508 98.5171 55.8326C99.1351 55.8144 99.7576 55.7872 100.385 55.7508C101.021 55.7145 101.598 55.6736 102.116 55.6281C102.043 55.7372 101.97 55.8826 101.898 56.0644C101.825 56.2461 101.761 56.4324 101.707 56.6233C101.661 56.8141 101.621 56.9868 101.584 57.1413C101.121 57.1685 100.621 57.1912 100.085 57.2094C99.5576 57.2367 99.0169 57.2503 98.4626 57.2503C97.9082 57.2594 97.3629 57.2639 96.8268 57.2639C96.0361 57.2639 95.3318 57.2276 94.7139 57.1549C94.0959 57.0822 93.5506 56.9413 93.0781 56.7323C92.6146 56.5233 92.2102 56.2188 91.8648 55.819C91.5195 55.4191 91.2196 54.892 90.9652 54.2377L92.0693 53.7879ZM91.7285 51.1842H92.1238L92.3829 51.1433L93.1599 51.4296C92.9327 52.9382 92.5464 54.1968 92.0012 55.2056C91.4559 56.2143 90.7879 56.9777 89.9973 57.4957C89.9337 57.3957 89.8383 57.273 89.711 57.1276C89.5838 56.9913 89.452 56.855 89.3157 56.7187C89.1794 56.5824 89.0567 56.4778 88.9477 56.4051C89.6838 55.9598 90.2881 55.3192 90.7607 54.4831C91.2423 53.647 91.565 52.6292 91.7285 51.4296V51.1842ZM89.5475 52.6564V51.4841L90.1336 51.1842H92.192L92.1784 52.452H90.3926C90.2291 52.452 90.0609 52.4701 89.8883 52.5065C89.7247 52.5428 89.6111 52.5928 89.5475 52.6564ZM89.5475 52.6564C89.5202 52.5383 89.4748 52.3974 89.4112 52.2339C89.3475 52.0612 89.2794 51.8931 89.2067 51.7295C89.134 51.5568 89.0749 51.4251 89.0295 51.3342C89.1385 51.3069 89.2521 51.2615 89.3703 51.1979C89.4884 51.1342 89.6111 51.0343 89.7383 50.898C89.8383 50.798 89.9791 50.6299 90.1609 50.3936C90.3426 50.1573 90.538 49.8938 90.7471 49.603C90.9652 49.3031 91.1696 49.0123 91.3605 48.7305C91.5604 48.4488 91.7194 48.2125 91.8376 48.0217V47.9672L92.2465 47.8036L93.2416 48.2534C93.0872 48.4806 92.9009 48.7533 92.6827 49.0713C92.4646 49.3803 92.2329 49.6984 91.9875 50.0255C91.7513 50.3527 91.515 50.6708 91.2787 50.9798C91.0515 51.2887 90.8425 51.5523 90.6516 51.7704C90.6516 51.7704 90.5971 51.7977 90.4881 51.8522C90.379 51.9067 90.2472 51.984 90.0927 52.0839C89.9473 52.1748 89.8201 52.2702 89.711 52.3702C89.602 52.4701 89.5475 52.5656 89.5475 52.6564ZM111.167 45.4589H117.819V47.0266H111.167V45.4589ZM114.616 49.712H116.293V55.6009C116.293 56.028 116.238 56.3643 116.129 56.6096C116.029 56.8641 115.829 57.0549 115.529 57.1821C115.229 57.3003 114.861 57.373 114.425 57.4003C113.989 57.4366 113.466 57.4548 112.858 57.4548C112.821 57.2185 112.753 56.9368 112.653 56.6096C112.562 56.2915 112.462 56.0189 112.353 55.7917C112.617 55.8008 112.88 55.8099 113.144 55.819C113.407 55.8281 113.644 55.8326 113.853 55.8326C114.062 55.8235 114.207 55.819 114.289 55.819C114.416 55.819 114.502 55.8008 114.548 55.7645C114.593 55.719 114.616 55.6509 114.616 55.56V49.712ZM110.581 49.2485H118.174V50.8025H110.581V49.2485ZM107.514 50.8571L108.945 49.4121L109.15 49.4939V57.5093H107.514V50.8571ZM109.054 47.6536L110.608 48.2534C110.254 48.8532 109.84 49.4576 109.368 50.0664C108.904 50.6662 108.414 51.2342 107.896 51.7704C107.387 52.3066 106.887 52.7746 106.396 53.1744C106.323 53.0563 106.219 52.9109 106.083 52.7382C105.946 52.5565 105.805 52.3747 105.66 52.193C105.524 52.0112 105.397 51.8658 105.278 51.7568C105.751 51.4296 106.219 51.0479 106.682 50.6117C107.146 50.1664 107.582 49.6938 107.991 49.194C108.4 48.6851 108.754 48.1716 109.054 47.6536ZM108.536 44.6819L110.118 45.3363C109.781 45.7634 109.404 46.1996 108.986 46.6449C108.568 47.0811 108.132 47.4991 107.678 47.899C107.223 48.2989 106.778 48.6487 106.342 48.9486C106.278 48.8214 106.192 48.676 106.083 48.5124C105.974 48.3398 105.86 48.1716 105.742 48.0081C105.633 47.8445 105.528 47.7082 105.428 47.5991C105.81 47.3628 106.196 47.0766 106.587 46.7403C106.978 46.4041 107.346 46.0587 107.691 45.7043C108.037 45.3408 108.318 45 108.536 44.6819ZM131.165 45.5816L132.242 44.6819C132.451 44.8183 132.669 44.9773 132.896 45.159C133.132 45.3408 133.35 45.5226 133.55 45.7043C133.759 45.8861 133.928 46.0496 134.055 46.195L132.896 47.1902C132.787 47.0266 132.633 46.8539 132.433 46.6722C132.242 46.4813 132.033 46.2905 131.806 46.0996C131.587 45.9088 131.374 45.7361 131.165 45.5816ZM122.127 47.0129H134.396V48.6078H122.127V47.0129ZM122.645 50.1619H128.548V51.7431H122.645V50.1619ZM124.703 51.0615H126.339V55.6827H124.703V51.0615ZM122.127 55.4646C122.672 55.3737 123.313 55.2692 124.049 55.151C124.794 55.0238 125.58 54.8875 126.407 54.7421C127.244 54.5967 128.075 54.4467 128.902 54.2922L129.011 55.7508C128.266 55.9144 127.512 56.078 126.748 56.2416C125.985 56.3961 125.249 56.546 124.54 56.6914C123.831 56.8459 123.177 56.9868 122.577 57.114L122.127 55.4646ZM128.834 44.7365H130.592C130.565 45.8633 130.579 46.963 130.633 48.0353C130.697 49.1077 130.797 50.1119 130.933 51.0479C131.069 51.984 131.233 52.8064 131.424 53.5152C131.615 54.2241 131.824 54.7784 132.051 55.1783C132.287 55.5782 132.537 55.7781 132.801 55.7781C132.955 55.7781 133.069 55.5827 133.141 55.1919C133.223 54.8012 133.282 54.1741 133.319 53.3108C133.51 53.5016 133.737 53.6879 134 53.8697C134.273 54.0514 134.523 54.1832 134.75 54.265C134.677 55.1283 134.555 55.7963 134.382 56.2688C134.218 56.7323 133.996 57.0504 133.714 57.223C133.441 57.4048 133.087 57.4957 132.651 57.4957C132.16 57.4957 131.724 57.3276 131.342 56.9913C130.96 56.6551 130.629 56.1916 130.347 55.6009C130.065 55.0011 129.829 54.2968 129.638 53.488C129.447 52.6792 129.293 51.8022 129.175 50.8571C129.057 49.9029 128.97 48.9077 128.916 47.8717C128.861 46.8357 128.834 45.7906 128.834 44.7365Z" fill="black"/></svg>