<svg width="32" height="32" viewBox="0 0 32 32" fill="none" xmlns="http://www.w3.org/2000/svg">
<rect width="32" height="32" fill="white"/>
<path d="M14.2581 4.37946C14.2911 4.3793 14.3241 4.37914 14.358 4.37897C14.467 4.37849 14.576 4.37827 14.685 4.37809C14.761 4.3779 14.837 4.37771 14.9131 4.37753C15.0725 4.37718 15.232 4.37699 15.3914 4.37688C15.595 4.3767 15.7986 4.37592 16.0021 4.37499C16.1592 4.37438 16.3163 4.37421 16.4735 4.37416C16.5485 4.37406 16.6235 4.3738 16.6985 4.37337C17.3314 4.37 17.9027 4.40542 18.3881 4.86562C18.6747 5.18248 18.8526 5.58513 18.8522 6.01303C18.8522 6.071 18.8522 6.071 18.8523 6.13015C18.8522 6.17227 18.8521 6.21438 18.852 6.25778C18.8519 6.3028 18.852 6.34781 18.852 6.39283C18.852 6.51481 18.8518 6.63679 18.8516 6.75876C18.8514 6.88633 18.8513 7.01389 18.8513 7.14145C18.8512 7.3829 18.8509 7.62435 18.8506 7.86581C18.8502 8.14074 18.85 8.41566 18.8499 8.69059C18.8495 9.25605 18.849 9.8215 18.8482 10.387C18.8257 10.387 18.8032 10.387 18.78 10.387C18.2298 10.3875 17.6796 10.3889 17.1294 10.3913C16.8633 10.3924 16.5972 10.3932 16.3312 10.3933C16.099 10.3934 15.8669 10.3941 15.6348 10.3955C15.5121 10.3961 15.3894 10.3966 15.2666 10.3963C14.6347 10.3951 14.1051 10.4054 13.569 10.7784C13.5352 10.8013 13.5014 10.8242 13.4665 10.8477C13.1811 11.0994 13.0063 11.4853 12.946 11.8549C12.9423 11.9496 12.9402 12.0435 12.9397 12.1381C12.9394 12.1663 12.9391 12.1945 12.9388 12.2236C12.938 12.3167 12.9375 12.4098 12.937 12.503C12.9367 12.551 12.9367 12.551 12.9365 12.5999C12.9356 12.7695 12.935 12.939 12.9345 13.1086C12.9341 13.2481 12.9332 13.3876 12.9318 13.5272C12.9302 13.6963 12.9294 13.8655 12.9291 14.0347C12.9289 14.0988 12.9284 14.1628 12.9276 14.2269C12.9212 14.7798 12.9987 15.2154 13.3395 15.6715C13.3562 15.6945 13.3729 15.7175 13.3902 15.7412C13.6946 16.1228 14.1777 16.3621 14.6511 16.4544C14.7419 16.4601 14.8292 16.4633 14.9199 16.4628C14.9581 16.4629 14.9581 16.4629 14.9971 16.4631C15.052 16.4633 15.1068 16.4634 15.1617 16.4634C15.2491 16.4633 15.3364 16.4638 15.4238 16.4643C15.672 16.4658 15.9202 16.4666 16.1684 16.4669C16.3207 16.467 16.473 16.4678 16.6254 16.469C16.6829 16.4693 16.7404 16.4694 16.7979 16.4692C17.3528 16.4676 17.8421 16.5327 18.2721 16.9171C18.7792 17.4344 18.831 18.0516 18.8297 18.7336C18.8298 18.7991 18.83 18.8646 18.8302 18.9301C18.8305 19.0668 18.8304 19.2035 18.8301 19.3402C18.8297 19.5141 18.8304 19.688 18.8313 19.8619C18.8319 19.997 18.8319 20.1321 18.8317 20.2672C18.8317 20.3313 18.8319 20.3953 18.8323 20.4594C18.8358 21.0851 18.7547 21.6129 18.3105 22.088C18.1681 22.2133 18.0072 22.2891 17.8317 22.3588C17.8041 22.3702 17.7765 22.3816 17.7481 22.3933C17.5982 22.434 17.459 22.4328 17.3044 22.4319C17.2716 22.4319 17.2388 22.432 17.205 22.4321C17.1338 22.4322 17.0627 22.4322 16.9916 22.432C16.8786 22.4318 16.7657 22.4321 16.6527 22.4326C16.3316 22.4338 16.0104 22.4344 15.6893 22.434C15.4926 22.4338 15.296 22.4344 15.0993 22.4355C15.0247 22.4358 14.9502 22.4357 14.8756 22.4354C14.3291 22.4329 13.8201 22.4456 13.405 22.8481C13.3867 22.8659 13.3683 22.8837 13.3493 22.902C12.9944 23.28 12.9315 23.7595 12.9345 24.2547C12.935 24.3367 12.9348 24.4186 12.9344 24.5006C12.9334 24.7335 12.9335 24.9663 12.9342 25.1992C12.9345 25.3424 12.9341 25.4855 12.9332 25.6287C12.933 25.6826 12.9331 25.7366 12.9336 25.7905C12.9381 26.3313 12.8443 26.8124 12.4582 27.2188C12.1387 27.5187 11.7746 27.6206 11.3465 27.6202C11.2943 27.6206 11.2943 27.6206 11.2409 27.6209C11.1261 27.6215 11.0112 27.6217 10.8963 27.6217C10.8161 27.6219 10.7358 27.6221 10.6556 27.6224C10.4874 27.6228 10.3192 27.6229 10.151 27.6229C9.93633 27.6228 9.72168 27.6237 9.50702 27.6249C9.34122 27.6256 9.17541 27.6257 9.0096 27.6257C8.93051 27.6258 8.85142 27.626 8.77234 27.6266C8.21659 27.6298 7.77672 27.6092 7.30605 27.2846C7.27155 27.261 7.23706 27.2375 7.20153 27.2132C6.9247 26.9378 6.7132 26.5236 6.71099 26.1277C6.71076 26.0988 6.71052 26.0698 6.71028 26.0399C6.71019 26.0084 6.71011 25.9768 6.71002 25.9443C6.7098 25.9109 6.70958 25.8774 6.70936 25.843C6.70872 25.7322 6.70833 25.6215 6.70801 25.5108C6.70787 25.4729 6.70774 25.435 6.7076 25.3959C6.70692 25.1952 6.70645 24.9944 6.70614 24.7937C6.70578 24.587 6.70465 24.3803 6.70335 24.1736C6.70249 24.0141 6.70222 23.8546 6.7021 23.6952C6.70194 23.619 6.70156 23.5428 6.70095 23.4667C6.69638 22.8583 6.74503 22.382 7.17488 21.9123C7.40345 21.6942 7.7384 21.5074 8.06067 21.5062C8.08654 21.506 8.11241 21.5058 8.13906 21.5056C8.1812 21.5056 8.1812 21.5056 8.22418 21.5055C8.26892 21.5053 8.26892 21.5053 8.31455 21.505C8.3793 21.5047 8.44405 21.5044 8.5088 21.5042C8.61153 21.5038 8.71425 21.5031 8.81698 21.5024C9.10906 21.5004 9.40114 21.4987 9.69323 21.4976C9.87198 21.4969 10.0507 21.4957 10.2295 21.4943C10.2973 21.4938 10.3652 21.4935 10.4331 21.4934C10.9278 21.4976 10.9278 21.4976 11.4048 21.3802C11.4592 21.3594 11.4592 21.3594 11.5146 21.3381C11.9815 21.1096 12.2918 20.7653 12.4647 20.2752C12.5691 19.9282 12.5441 19.5532 12.5411 19.1947C12.5401 19.0842 12.5407 18.9737 12.5417 18.8632C12.5424 18.7558 12.5419 18.6484 12.5415 18.541C12.5418 18.5021 12.5421 18.4632 12.5425 18.4231C12.5357 17.9316 12.3403 17.4892 12.0033 17.1313C11.6412 16.7927 11.2138 16.6262 10.7227 16.5996C10.6982 16.5982 10.6737 16.5969 10.6484 16.5955C10.4191 16.5834 10.1899 16.5796 9.96027 16.5784C9.88905 16.578 9.81784 16.5774 9.74662 16.5767C9.54462 16.5747 9.34263 16.5729 9.14062 16.5718C9.01581 16.5711 8.89101 16.57 8.7662 16.5685C8.71927 16.5681 8.67235 16.5678 8.62542 16.5677C8.11952 16.5664 7.61903 16.4611 7.23854 16.1031C6.8745 15.687 6.71217 15.2247 6.7095 14.6761C6.70923 14.6454 6.70896 14.6147 6.70868 14.5831C6.70787 14.4818 6.70733 14.3806 6.70685 14.2793C6.70668 14.2445 6.7065 14.2097 6.70632 14.1738C6.70545 13.9894 6.70481 13.805 6.70434 13.6206C6.7039 13.4689 6.70299 13.3172 6.70165 13.1654C6.70002 12.9814 6.69922 12.7974 6.69899 12.6133C6.69877 12.5437 6.69827 12.474 6.69748 12.4043C6.69095 11.7944 6.76078 11.2902 7.17488 10.811C7.45518 10.5294 7.84176 10.3194 8.24478 10.317C8.28132 10.3171 8.28132 10.3171 8.31859 10.3171C8.34453 10.317 8.37046 10.3169 8.39718 10.3167C8.45351 10.3165 8.50983 10.3163 8.56615 10.3162C8.65586 10.316 8.74556 10.3155 8.83526 10.3149C9.09033 10.3132 9.34541 10.3116 9.60049 10.3111C9.7567 10.3107 9.9129 10.3098 10.0691 10.3084C10.1281 10.308 10.1871 10.3079 10.2461 10.3079C10.8895 10.3085 11.5559 10.2338 12.0442 9.77327C12.4051 9.38308 12.557 8.92608 12.5577 8.40164C12.5578 8.37324 12.558 8.34483 12.5582 8.31557C12.5585 8.25411 12.5588 8.19265 12.559 8.13119C12.5594 8.03365 12.5601 7.93611 12.5608 7.83857C12.5628 7.5613 12.5646 7.28404 12.5657 7.00677C12.5663 6.83691 12.5675 6.66705 12.569 6.4972C12.5694 6.43276 12.5697 6.36832 12.5698 6.30388C12.5708 5.77874 12.6081 5.26933 12.9861 4.86269C13.3524 4.52391 13.7673 4.38004 14.2581 4.37946Z" fill="black"/>
<path d="M18.8563 10.387C19.555 10.3824 20.2536 10.3789 20.9522 10.3768C21.2767 10.3758 21.6011 10.3744 21.9255 10.3722C22.2084 10.3702 22.4913 10.369 22.7742 10.3685C22.9238 10.3683 23.0735 10.3677 23.2232 10.3663C23.3643 10.3649 23.5054 10.3645 23.6466 10.3648C23.6981 10.3648 23.7497 10.3644 23.8012 10.3636C24.1764 10.3584 24.4748 10.424 24.7706 10.6665C25.1453 11.0462 25.2929 11.4305 25.2933 11.9552C25.2936 11.9905 25.2938 12.0258 25.2941 12.0622C25.2949 12.1784 25.2952 12.2946 25.2954 12.4108C25.2957 12.4921 25.296 12.5734 25.2963 12.6546C25.2969 12.8248 25.2971 12.995 25.2972 13.1652C25.2973 13.3825 25.2986 13.5997 25.3001 13.8169C25.3011 13.9848 25.3013 14.1526 25.3014 14.3204C25.3015 14.4005 25.3019 14.4805 25.3026 14.5606C25.3076 15.1939 25.2487 15.6364 24.8029 16.1219C24.3243 16.5701 23.6743 16.5674 23.0611 16.5653C22.9925 16.5654 22.9239 16.5655 22.8553 16.5656C22.7122 16.5657 22.5691 16.5655 22.426 16.5651C22.2441 16.5645 22.0622 16.5648 21.8803 16.5654C21.7388 16.5658 21.5974 16.5656 21.4559 16.5654C21.3889 16.5653 21.3219 16.5654 21.2549 16.5656C20.5508 16.5675 19.8876 16.5258 19.3541 16.0098C19.0629 15.6947 18.852 15.2939 18.8524 14.859C18.8524 14.8195 18.8523 14.7801 18.8523 14.7395C18.8524 14.6959 18.8525 14.6523 18.8526 14.6087C18.8526 14.5627 18.8526 14.5168 18.8526 14.4708C18.8526 14.346 18.8528 14.2213 18.853 14.0966C18.8532 13.9662 18.8532 13.8358 18.8533 13.7054C18.8534 13.4585 18.8537 13.2116 18.854 12.9647C18.8544 12.6836 18.8545 12.4026 18.8547 12.1215C18.855 11.5433 18.8556 10.9651 18.8563 10.387Z" fill="#00E291"/>
</svg>
